<svg id="Lager_1" data-name="Lager 1" xmlns="http://www.w3.org/2000/svg" xmlns:xlink="http://www.w3.org/1999/xlink" viewBox="0 0 299.95 384.61"><defs><style>.cls-1{fill:#1d1d1b;}.cls-2{fill:#f08436;}.cls-3{fill:#e6353a;}.cls-4{fill:#805aa1;}.cls-5{fill:url(#Namnlös_övertoning_74);}.cls-6{fill:#fff;}</style><linearGradient id="Namnlös_övertoning_74" x1="1087.17" y1="270.63" x2="1055.67" y2="461.63" gradientTransform="matrix(1, 0.09, -0.08, 0.79, 42.93, 35.87)" gradientUnits="userSpaceOnUse"><stop offset="0" stop-color="#e20613"/><stop offset="0.11" stop-color="#e20813"/><stop offset="0.15" stop-color="#e30f14"/><stop offset="0.18" stop-color="#e41a15"/><stop offset="0.2" stop-color="#e52b17"/><stop offset="0.22" stop-color="#e7411a"/><stop offset="0.23" stop-color="#e84e1b"/><stop offset="0.24" stop-color="#e8501b"/><stop offset="0.24" stop-color="#e9571a"/><stop offset="0.24" stop-color="#eb6217"/><stop offset="0.24" stop-color="#ed7315"/><stop offset="0.25" stop-color="#f18911"/><stop offset="0.25" stop-color="#f5a50c"/><stop offset="0.25" stop-color="#f9c407"/><stop offset="0.25" stop-color="#fee801"/><stop offset="0.25" stop-color="#ffec00"/><stop offset="0.3" stop-color="#fdeb00"/><stop offset="0.32" stop-color="#f6e800"/><stop offset="0.33" stop-color="#ebe100"/><stop offset="0.34" stop-color="#e4de00"/><stop offset="0.4" stop-color="#e2dd01"/><stop offset="0.43" stop-color="#dbdb03"/><stop offset="0.44" stop-color="#d0d806"/><stop offset="0.46" stop-color="#bfd20c"/><stop offset="0.47" stop-color="#a9cc12"/><stop offset="0.48" stop-color="#8dc31b"/><stop offset="0.49" stop-color="#6db925"/><stop offset="0.5" stop-color="#49ae30"/><stop offset="0.5" stop-color="#39a935"/><stop offset="0.57" stop-color="#39a937"/><stop offset="0.59" stop-color="#39a93e"/><stop offset="0.61" stop-color="#39a949"/><stop offset="0.62" stop-color="#38a95a"/><stop offset="0.63" stop-color="#38a970"/><stop offset="0.64" stop-color="#37a88c"/><stop offset="0.65" stop-color="#36a8ac"/><stop offset="0.66" stop-color="#35a8d0"/><stop offset="0.66" stop-color="#35a8e0"/><stop offset="0.73" stop-color="#35a6df"/><stop offset="0.76" stop-color="#349fd9"/><stop offset="0.77" stop-color="#3494d0"/><stop offset="0.79" stop-color="#3383c3"/><stop offset="0.8" stop-color="#316db2"/><stop offset="0.81" stop-color="#2f529e"/><stop offset="0.82" stop-color="#2d3285"/><stop offset="0.82" stop-color="#2d2e82"/><stop offset="0.88" stop-color="#2f2e82"/><stop offset="0.9" stop-color="#362c82"/><stop offset="0.92" stop-color="#412a82"/><stop offset="0.93" stop-color="#522781"/><stop offset="0.94" stop-color="#682381"/><stop offset="0.95" stop-color="#831e80"/><stop offset="0.95" stop-color="#941b80"/></linearGradient></defs><title>unicornfrog</title><path class="cls-1" d="M1002.22,630.11s-4.53,5-8.53,8.57-7.54,6.51-7.54,9,14.54,5.52,14.54,25.1c0,11.55-12,19.56-46.88,19.56-24.12,0-44.86-1.27-44.86.73s20.81,7.29,40.07,6.79c26.89-.71,45.51-4.14,47.16-1,1.31,2.46-1.38,4.19-5.4,5.22s-15.2,2.37-15.2,4.55,15.64.38,20.13.59c8.69.39,10.27,1.56,10.27,4.54,0,4.34-7.29,3.38-14.81,3.16-6.71-.2-12.23-1.25-13.62,1s22.11,6.52,20.34,11.65c-1.38,4-8.29,1.77-16.58-1.38-6.26-2.39-17.22-5.7-24.74-6.22s-31.63-.56-55.68-2.75c-32.84-3-90.26-35.62-90.26-55.93,0-8,9.68-12,10.52-15,7.3-26.57,26.85-79.4,49.68-98.06,19.31-15.81,41.38-17,85.73-37.36,32.73-14.95,41.41-17.8,50.66-24.3,5.94-4.18,11.06-13.81,14.07-17.32s11-7,17-7c10.26,0,15.28,8.79,26.56,12.56,9.4,3.15,38.12,7.54,38.12,18.57,0,12-2,28.57-18.53,54.15s-35.62,46.64-38.11,51.7-3.3,16.26-7.31,26.79-8.24,20.55-7.26,23.52,26.09,25.38,31.1,25.38,18.9-5,24.4-7.66c8.75-4.27,14.93-3.89,15.22-1.35.49,4.49-19.89,9.61-18.38,13.19,1.58,3.75,26.45-.45,26.45,4.34,0,2.37-3.36,3.75-8.88,4.15-7.21.51-14.61.39-14.61,3.75,0,3.53,19.93,3.55,20,8.15,0,1.38-1.31,2.51-5.34,2.51-11.23,0-36.52-5-40.4-6.56-5-2-55.59-24.53-57.08-40.6s0-26.07,0-26.07Z" transform="translate(-810.63 -347.04)"/><path class="cls-2" d="M1059.33,442.36a21.11,21.11,0,0,0-4.88,6.8,38.9,38.9,0,0,0-3.15,12.52L1074.24,493a25.43,25.43,0,0,0,4.07-9.38,38.66,38.66,0,0,0-.39-15.88Z" transform="translate(-810.63 -347.04)"/><path class="cls-3" d="M1043.22,473.17A13.59,13.59,0,0,0,1046,483a20.6,20.6,0,0,0,12.2,7.57l11.47,2.61-21-28.63A13,13,0,0,0,1043.22,473.17Z" transform="translate(-810.63 -347.04)"/><path class="cls-4" d="M1093.5,372.12l2.69,3.67a74.13,74.13,0,0,0,3.88-20.12,59.64,59.64,0,0,0-3.44,5.78A25,25,0,0,0,1093.5,372.12Z" transform="translate(-810.63 -347.04)"/><path class="cls-5" d="M1098.79,380c4-8,5.33-19.09,5.89-31.15a1.94,1.94,0,0,0-2-1.77,2.19,2.19,0,0,0-1.88.78c-6,8.07-11.14,15.89-11.45,23.95a34,34,0,0,0-8.61,10.67,21.49,21.49,0,0,0-2,11.9,36.21,36.21,0,0,0-10.47,22.18,33.26,33.26,0,0,0-8.67,10.65,21.33,21.33,0,0,0-2,11.76,23.75,23.75,0,0,0-7.06,9,41.29,41.29,0,0,0-3.36,13.2c-.28.18-.58.35-.85.54a16.22,16.22,0,0,0-7.24,11,16.39,16.39,0,0,0,3.29,11.89,25,25,0,0,0,14.76,9.15l16.36,3.72h0l.42.1a2.33,2.33,0,0,0,2.27-.64,28.66,28.66,0,0,0,6.26-12.7,41.13,41.13,0,0,0-.35-16.75c5.82-10.1,8.51-20.29,5.63-29.25.35-.61.67-1.23,1-1.84a.87.87,0,0,0,.09-.11s0,0,0-.07a40,40,0,0,0,4.42-27.11A48.89,48.89,0,0,0,1098.79,380Z" transform="translate(-810.63 -347.04)"/><path class="cls-6" d="M1029.83,483.06c-25.9,11.66-29.73,44.23-29.73,44.23s26.92,18.72,52.82,7.06c25.39-11.44,29.25-44,29.25-44S1055.22,471.62,1029.83,483.06Zm3.22,7.8a19.69,19.69,0,1,1-9.87,26A19.57,19.57,0,0,1,1033.05,490.86Zm3.47,7.69a11.25,11.25,0,1,0,14.87,5.64,11.63,11.63,0,0,0-2.64-3.73,3.94,3.94,0,0,1-2.36,2.9,4.33,4.33,0,0,1-5.58-2.11,3.94,3.94,0,0,1,.15-3.74,11.77,11.77,0,0,0-4.45,1Z" transform="translate(-810.63 -347.04)"/><path class="cls-1" d="M1028,482.91c16.45-2.11,32.27,1.59,46.63,9.76,5.6,3.18,10.65-5.45,5.05-8.64-15.74-8.95-33.6-13.44-51.68-11.12-6.3.81-6.38,10.82,0,10Z" transform="translate(-810.63 -347.04)"/></svg>